<svg data-v-2cb57da0="" version="1.0" xmlns="http://www.w3.org/2000/svg" xmlns:xlink="http://www.w3.org/1999/xlink" width="50" height="50" viewBox="-10 -10 110 110" preserveAspectRatio="xMidYMid meet" color-interpolation-filters="sRGB" style="margin: auto;">
  <g data-v-2cb57da0="" fill="#333" class="iconlinesvg-g iconlinesvg" transform="translate(0,0)">
    <g class="tp-name" transform="matrix(1,0)">
      <g transform="translate(0, 0)">
        <g>
          <g class="imagesvg">
            <g>
              <rect fill="#ffffff" fill-opacity="0" stroke-width="2" x="0" y="0" width="100" height="100" class="image-rect"/>
              <svg x="0" y="0" width="100" height="100" class="image-svg-svg primary" style="overflow: visible;">
                <svg xmlns="http://www.w3.org/2000/svg" viewBox="100 100">
                  <circle fill="#000000" cx="49.31" cy="78.51" r="11.5" transform="matrix(.69 0 0 .69 15.5 15.5)"/>
                  <circle fill="#000000" cx="-13.96" cy="47.66" r="8.02" transform="matrix(.69 0 0 .69 15.5 15.5)"/>
                  <circle fill="#000000" cx="21.07" cy="28.14" r="8.02" transform="matrix(.69 0 0 .69 15.5 15.5)"/>
                  <circle fill="#000000" cx="48.09" cy="13.32" r="6.8" transform="matrix(.69 0 0 .69 15.5 15.5)"/>
                  <circle fill="#000000" cx="17.41" cy="-8.99" r="5.23" transform="matrix(.69 0 0 .69 15.5 15.5)"/>
                  <circle fill="#000000" cx="47.39" cy="-17.01" r="4.36" transform="matrix(.69 0 0 .69 15.5 15.5)"/>
                  <circle fill="#000000" cx="-7.17" cy="13.49" r="6.8" transform="matrix(.69 0 0 .69 15.5 15.5)"/>
                  <circle fill="#000000" cx="-5.94" cy="75.72" r="11.5" transform="matrix(.69 0 0 .69 15.5 15.5)"/>
                  <circle fill="#000000" cx="102.47" cy="75.72" r="11.5" transform="matrix(.69 0 0 .69 15.5 15.5)"/>
                  <circle fill="#000000" cx="18.11" cy="100.64" r="11.5" transform="matrix(.69 0 0 .69 15.5 15.5)"/>
                  <circle fill="#000000" cx="79.64" cy="100.64" r="11.5" transform="matrix(.69 0 0 .69 15.5 15.5)"/>
                  <circle fill="#000000" cx="75.8" cy="61.25" r="11.5" transform="matrix(.69 0 0 .69 15.5 15.5)"/>
                  <circle fill="#000000" cx="75.8" cy="28.14" r="11.5" transform="matrix(.69 0 0 .69 15.5 15.5)"/>
                  <circle fill="#000000" cx="110.14" cy="44.17" r="11.5" transform="matrix(.69 0 0 .69 15.5 15.5)"/>
                  <circle fill="#000000" cx="102.47" cy="14.19" r="11.5" transform="matrix(.69 0 0 .69 15.5 15.5)"/>
                  <circle fill="#000000" cx="79.64" cy="-8.99" r="11.5" transform="matrix(.69 0 0 .69 15.5 15.5)"/>
                  <circle fill="#000000" cx="21.07" cy="61.25" r="11.5" transform="matrix(.69 0 0 .69 15.5 15.5)"/>
                  <circle fill="#000000" cx="49.31" cy="109.36" r="11.5" transform="matrix(.69 0 0 .69 15.5 15.5)"/>
                  <circle fill="#000000" cx="49.31" cy="47.66" r="11.5" transform="matrix(.69 0 0 .69 15.5 15.5)"/>
                </svg>
              </svg>
            </g>
          </g>
        </g>
      </g>
    </g>
  </g>
  <defs v-gra="od"/>
</svg>
